<mxfile host="app.diagrams.net" modified="2024-04-14T13:54:14.721Z" agent="Mozilla/5.0 (Windows NT 10.0; Win64; x64) AppleWebKit/537.36 (KHTML, like Gecko) Chrome/120.0.0.0 Safari/537.36" etag="3C_2IYxhiWxwqqGWl6SE" version="24.1.0" type="github">
  <diagram name="第 1 页" id="VbYxP_IMOz5BQxSwF033">
    <mxGraphModel dx="1036" dy="551" grid="1" gridSize="10" guides="1" tooltips="1" connect="1" arrows="1" fold="1" page="1" pageScale="1" pageWidth="827" pageHeight="1169" math="0" shadow="0">
      <root>
        <mxCell id="0" />
        <mxCell id="1" parent="0" />
        <mxCell id="tzoFN_0iuVmwt0Pl230T-3" style="edgeStyle=orthogonalEdgeStyle;rounded=0;orthogonalLoop=1;jettySize=auto;html=1;entryX=0.5;entryY=0;entryDx=0;entryDy=0;" edge="1" parent="1" source="tzoFN_0iuVmwt0Pl230T-1" target="tzoFN_0iuVmwt0Pl230T-2">
          <mxGeometry relative="1" as="geometry">
            <Array as="points">
              <mxPoint x="230" y="195" />
            </Array>
          </mxGeometry>
        </mxCell>
        <mxCell id="tzoFN_0iuVmwt0Pl230T-22" value="Y" style="edgeLabel;html=1;align=center;verticalAlign=middle;resizable=0;points=[];fontStyle=1" vertex="1" connectable="0" parent="tzoFN_0iuVmwt0Pl230T-3">
          <mxGeometry x="-0.3468" y="-1" relative="1" as="geometry">
            <mxPoint as="offset" />
          </mxGeometry>
        </mxCell>
        <mxCell id="tzoFN_0iuVmwt0Pl230T-4" style="edgeStyle=orthogonalEdgeStyle;rounded=0;orthogonalLoop=1;jettySize=auto;html=1;entryX=0.5;entryY=0;entryDx=0;entryDy=0;" edge="1" parent="1" source="tzoFN_0iuVmwt0Pl230T-1" target="tzoFN_0iuVmwt0Pl230T-5">
          <mxGeometry relative="1" as="geometry">
            <mxPoint x="620" y="240" as="targetPoint" />
          </mxGeometry>
        </mxCell>
        <mxCell id="tzoFN_0iuVmwt0Pl230T-23" value="N" style="edgeLabel;html=1;align=center;verticalAlign=middle;resizable=0;points=[];" vertex="1" connectable="0" parent="tzoFN_0iuVmwt0Pl230T-4">
          <mxGeometry x="-0.2768" y="3" relative="1" as="geometry">
            <mxPoint as="offset" />
          </mxGeometry>
        </mxCell>
        <mxCell id="tzoFN_0iuVmwt0Pl230T-1" value="正向搜索？" style="rhombus;whiteSpace=wrap;html=1;" vertex="1" parent="1">
          <mxGeometry x="324" y="170" width="180" height="50" as="geometry" />
        </mxCell>
        <mxCell id="tzoFN_0iuVmwt0Pl230T-9" value="" style="edgeStyle=orthogonalEdgeStyle;rounded=0;orthogonalLoop=1;jettySize=auto;html=1;" edge="1" parent="1" source="tzoFN_0iuVmwt0Pl230T-2" target="tzoFN_0iuVmwt0Pl230T-8">
          <mxGeometry relative="1" as="geometry">
            <Array as="points">
              <mxPoint x="230" y="330" />
            </Array>
          </mxGeometry>
        </mxCell>
        <mxCell id="tzoFN_0iuVmwt0Pl230T-2" value="各条件取交集" style="rounded=0;whiteSpace=wrap;html=1;" vertex="1" parent="1">
          <mxGeometry x="170" y="240" width="120" height="40" as="geometry" />
        </mxCell>
        <mxCell id="tzoFN_0iuVmwt0Pl230T-11" style="edgeStyle=orthogonalEdgeStyle;rounded=0;orthogonalLoop=1;jettySize=auto;html=1;entryX=1;entryY=0.5;entryDx=0;entryDy=0;" edge="1" parent="1" source="tzoFN_0iuVmwt0Pl230T-5" target="tzoFN_0iuVmwt0Pl230T-8">
          <mxGeometry relative="1" as="geometry">
            <mxPoint x="610" y="350" as="targetPoint" />
            <Array as="points">
              <mxPoint x="610" y="330" />
            </Array>
          </mxGeometry>
        </mxCell>
        <mxCell id="tzoFN_0iuVmwt0Pl230T-5" value="各条件取反再取并集" style="rounded=0;whiteSpace=wrap;html=1;" vertex="1" parent="1">
          <mxGeometry x="550" y="240" width="120" height="40" as="geometry" />
        </mxCell>
        <mxCell id="tzoFN_0iuVmwt0Pl230T-7" style="edgeStyle=orthogonalEdgeStyle;rounded=0;orthogonalLoop=1;jettySize=auto;html=1;entryX=0.5;entryY=0;entryDx=0;entryDy=0;" edge="1" parent="1" source="tzoFN_0iuVmwt0Pl230T-6" target="tzoFN_0iuVmwt0Pl230T-1">
          <mxGeometry relative="1" as="geometry" />
        </mxCell>
        <mxCell id="tzoFN_0iuVmwt0Pl230T-6" value="设置搜索条件集合" style="rounded=0;whiteSpace=wrap;html=1;" vertex="1" parent="1">
          <mxGeometry x="354" y="110" width="120" height="30" as="geometry" />
        </mxCell>
        <mxCell id="tzoFN_0iuVmwt0Pl230T-14" value="" style="edgeStyle=orthogonalEdgeStyle;rounded=0;orthogonalLoop=1;jettySize=auto;html=1;" edge="1" parent="1" source="tzoFN_0iuVmwt0Pl230T-8" target="tzoFN_0iuVmwt0Pl230T-13">
          <mxGeometry relative="1" as="geometry" />
        </mxCell>
        <mxCell id="tzoFN_0iuVmwt0Pl230T-8" value="先执行服务器支持的条件" style="whiteSpace=wrap;html=1;rounded=0;" vertex="1" parent="1">
          <mxGeometry x="360" y="310" width="120" height="40" as="geometry" />
        </mxCell>
        <mxCell id="tzoFN_0iuVmwt0Pl230T-19" value="" style="edgeStyle=orthogonalEdgeStyle;rounded=0;orthogonalLoop=1;jettySize=auto;html=1;" edge="1" parent="1" source="tzoFN_0iuVmwt0Pl230T-13" target="tzoFN_0iuVmwt0Pl230T-18">
          <mxGeometry relative="1" as="geometry" />
        </mxCell>
        <mxCell id="tzoFN_0iuVmwt0Pl230T-13" value="获取满足条件的邮件头部字段" style="whiteSpace=wrap;html=1;rounded=0;" vertex="1" parent="1">
          <mxGeometry x="360" y="380" width="120" height="60" as="geometry" />
        </mxCell>
        <mxCell id="tzoFN_0iuVmwt0Pl230T-25" value="" style="edgeStyle=orthogonalEdgeStyle;rounded=0;orthogonalLoop=1;jettySize=auto;html=1;" edge="1" parent="1" source="tzoFN_0iuVmwt0Pl230T-18" target="tzoFN_0iuVmwt0Pl230T-24">
          <mxGeometry relative="1" as="geometry" />
        </mxCell>
        <mxCell id="tzoFN_0iuVmwt0Pl230T-18" value="本地执行服务器不支持的条件" style="whiteSpace=wrap;html=1;rounded=0;" vertex="1" parent="1">
          <mxGeometry x="360" y="460" width="120" height="60" as="geometry" />
        </mxCell>
        <mxCell id="tzoFN_0iuVmwt0Pl230T-24" value="待备份邮件的UID" style="whiteSpace=wrap;html=1;rounded=0;" vertex="1" parent="1">
          <mxGeometry x="360" y="550" width="120" height="40" as="geometry" />
        </mxCell>
      </root>
    </mxGraphModel>
  </diagram>
</mxfile>
